<?xml version="1.0" encoding="utf-8"?>
<!-- Generator: Adobe Illustrator 22.1.0, SVG Export Plug-In . SVG Version: 6.00 Build 0)  -->
<svg version="1.1" id="Layer_1" xmlns="http://www.w3.org/2000/svg" xmlns:xlink="http://www.w3.org/1999/xlink" x="0px" y="0px"
	 viewBox="0 0 133.3 172.8" style="enable-background:new 0 0 133.3 172.8;" xml:space="preserve">
<style type="text/css">
	.st0{display:none;}
	.st1{display:inline;}
	.st2{clip-path:url(#SVGID_2_);fill:#2980C3;}
	.st3{display:inline;fill:#2980C3;}
	.st4{display:inline;fill:#1B2336;}
	.st5{clip-path:url(#SVGID_4_);fill:#1B2336;}
	.st6{clip-path:url(#SVGID_6_);fill:#2980C3;}
	.st7{display:inline;fill:#E0E0E0;}
	.st8{clip-path:url(#SVGID_8_);fill:#E0E0E0;}
	.st9{fill:#E0E0E0;}
</style>
<g class="st0">
	<g class="st1">
		<defs>
			<rect id="SVGID_1_" y="0" width="133.3" height="172.8"/>
		</defs>
		<clipPath id="SVGID_2_">
			<use xlink:href="#SVGID_1_"  style="overflow:visible;"/>
		</clipPath>
		<path class="st2" d="M0,68.9c0.1-2.1-0.2-4.5,0.2-6.9c0.7-4.1,2.8-7,6.5-8.9c0.9-0.5,1.5-0.9,1.7-2c1.6-8.7,5.1-16.7,10.3-23.9
			c0.6-0.8,1.1-1.4,0.3-2.5c-1-1.4-0.3-2.6,0.7-3.8C27,12.7,35.8,6.7,46.2,3.4c25-7.7,47-2.4,65.8,15.8c1.7,1.7,4,3.4,1.8,6.3
			c-0.4,0.5,0.3,0.9,0.6,1.3c5.4,7.3,8.9,15.5,10.5,24.4c0.2,1,0.8,1.3,1.5,1.7c4.5,2.3,6.7,6.1,6.8,11c0,4.5,0.5,9-0.3,13.4
			c-1.1,6.4-7.6,10.9-13.9,9.6c-1.9-0.4-2.4-1.9-2.4-3.7c0-7.4,0.2-14.7,0-22.1c-0.5-19.8-9.4-34.6-26.7-44.1
			C61,1.3,24,18.9,17.6,51.3c-1.1,5.6-0.9,11.3-0.9,17c0.1,5.3,0,10.6-0.1,15.8c0,1.9-1.1,2.9-3.1,3C5.4,87.5,0,82.3,0,74.3
			C0,72.6,0,70.9,0,68.9"/>
	</g>
	<path class="st3" d="M81.6,96.2c3.4,0.4,6.7,1,10.1,1.2c4.6,0.3,8-1.2,10.6-3.9c3.2-3.4,4.7-7.5,4.4-12c-0.3-4.5-4.2-7.2-9.6-6.3
		c-4.8,0.8-9,2.7-13.3,4.4c-3.8,1.5-7.4,3.3-10.2,5.9c-3.9,3.6-1.7,8.5,4.6,10C79.3,95.9,80.5,96,81.6,96.2"/>
	<path class="st3" d="M62.9,86.8L62.9,86.8C62.9,86.8,62.9,86.8,62.9,86.8c-0.4-1.1-1-2.1-1.7-3c-2.5-3.9-5.9-7.3-9.4-10.3
		c-1.8-1.6-3.8-3-5.8-4.4c-4.5-3.1-8-4.9-8-4.9l0,0c-5.3-2.7-10.2-0.1-11.5,6c-1.4,6.8-0.3,13.4,3.4,19.3c2.6,4.1,6.5,6,11.2,6.5
		c2.9,0.3,5.9,0.4,8.9,0.6c2.4,0.1,4.8,0.2,7.1-0.6c3.1-1,5.5-2.9,6-6.2C63.4,88.8,63.2,87.8,62.9,86.8"/>
	<path class="st3" d="M120,102.5c-0.1-2.7-1.2-7-3-8.4c-0.8-0.6-1.9-0.3-2.2,0.7c-0.4,1.2-1,2.9-1.9,4.9h0c-2.1,4.9-5.1,9-8.7,12.3
		l0,0c-4.7,4.3-10.2,7.4-15.6,9.6c0,0,0,0,0,0c-1.3,0.5-2.7,1-4,1.5c0,0,0,0,0,0c-0.9,0.3-1.7,0.6-2.6,0.8c0,0,0,0,0,0
		c-0.4,0.1-0.8,0.2-1.2,0.3c0,0,0,0-0.1,0c-0.8,0.2-1.6,0.4-2.4,0.6c0,0-0.1,0-0.1,0c-0.4,0.1-0.7,0.2-1.1,0.2c0,0-0.1,0-0.1,0
		c-0.7,0.2-1.5,0.3-2.2,0.5c0,0-0.1,0-0.1,0c-0.3,0.1-0.6,0.1-0.9,0.2c0,0-0.1,0-0.1,0c-0.7,0.1-1.3,0.2-1.9,0.3c-0.1,0-0.1,0-0.2,0
		c-0.3,0-0.5,0.1-0.8,0.1c0,0-0.1,0-0.1,0c-0.3,0-0.6,0.1-0.8,0.1c0,0,0,0,0,0c-0.3,0-0.5,0.1-0.7,0.1c0,0-0.1,0-0.1,0
		c-0.2,0-0.4,0.1-0.7,0.1c0,0,0,0,0,0l0,0c-1.7,0.2-2.8,0.3-3,0.3c0,0,0,0,0,0l0,0c-22.7,2.4,5.8,7.4,27.2,3.6l0,0c0,0,0.1,0,0.1,0
		c0.5-0.1,1-0.2,1.5-0.3c0.4-0.1,0.9-0.2,1.3-0.3c0.3-0.1,0.7-0.2,1-0.2c0.2-0.1,0.4-0.1,0.6-0.1c2.9-0.7,5.5-1.6,7.7-2.8
		c13.3-6.4,14.5-17.1,14.5-17.1C119.9,107.5,120.1,105.2,120,102.5"/>
	<path class="st4" d="M16.4,153.9h-1.9c-0.2,0-0.4,0.2-0.4,0.4v8.1c0,1.6,0.6,2.3,1.9,2.3c0.2,0,0.4,0,0.6-0.1
		c0.3-0.1,0.5,0.2,0.5,0.4v1.8c0,0.2-0.2,0.4-0.4,0.4c-0.6,0.1-1.1,0.2-1.7,0.2c-1.5,0-2.6-0.4-3.2-1.2c-0.6-0.7-0.7-1.5-0.7-3.5
		v-8.5c0-0.2-0.2-0.4-0.4-0.4H9.2c-0.2,0-0.4-0.2-0.4-0.4v-1.8c0-0.2,0.2-0.4,0.4-0.4h1.4c0.2,0,0.4-0.2,0.4-0.4v-3.5
		c0-0.2,0.2-0.4,0.4-0.4h2.1c0.2,0,0.4,0.2,0.4,0.4v3.5c0,0.2,0.2,0.4,0.4,0.4h1.9c0.2,0,0.4,0.2,0.4,0.4v1.8
		C16.8,153.7,16.6,153.9,16.4,153.9"/>
	<path class="st4" d="M22.4,159.8c-0.2,0-0.4,0.2-0.4,0.4v1c0,2.8,0.5,3.7,2,3.7c0.9,0,1.6-0.5,1.8-1.4c0.1-0.3,0.1-0.5,0.1-1.3
		c0-0.2,0.2-0.4,0.4-0.4h2.1c0.2,0,0.4,0.2,0.4,0.5c0,1.9-0.2,2.6-0.7,3.4c-0.8,1.3-2.3,2-4.3,2c-1.8,0-3.2-0.6-4-1.7
		c-0.7-1-1-2.2-1-4.4v-4.8c0-2.6,0.3-3.6,1.3-4.6c0.9-0.8,2.1-1.3,3.7-1.3c1.7,0,2.9,0.5,3.8,1.5c0.9,1,1.2,2.2,1.2,4.7v2.2
		c0,0.2-0.2,0.4-0.4,0.4H22.4L22.4,159.8z M25.9,156.2c0-1.9-0.6-2.7-2-2.7c-1.4,0-2,0.8-2,2.7v0.9h3.9V156.2L25.9,156.2z"/>
	<path class="st4" d="M38.5,167c0-0.2-0.1-0.4-0.1-0.6c0-0.4-0.5-0.5-0.7-0.3c-1.1,1-1.9,1.4-2.9,1.4c-2,0-3.3-1.6-3.3-4.3
		c0-2.1,0.8-3.3,2.8-4.5c0.7-0.4,1.5-0.8,3.8-1.8c0.2-0.1,0.3-0.2,0.3-0.4v-0.5c0-1.7-0.5-2.3-1.6-2.3c-1,0-1.6,0.6-1.7,1.9
		c0,0.2-0.2,0.4-0.4,0.4h-2.3c-0.3,0-0.5-0.2-0.4-0.5c0.4-2.9,2.3-4.5,5.3-4.5c1.5,0,2.6,0.4,3.3,1.2c0.7,0.8,0.9,1.6,0.9,3.6v7.2
		c0,2.1,0,2.9,0.2,3.8c0.1,0.3-0.2,0.5-0.4,0.5h-2.2C38.7,167.3,38.5,167.2,38.5,167 M38.3,159.8c0-0.3-0.4-0.6-0.7-0.4
		c-2.2,1.3-3,2.3-3,3.7c0,1.1,0.6,1.8,1.5,1.8c0.8,0,1.6-0.4,2.1-1.3c0-0.1,0.1-0.2,0.1-0.3V159.8L38.3,159.8z"/>
	<path class="st4" d="M47.4,152.2c0,0.4,0.5,0.6,0.7,0.3c1.1-1,2.1-1.5,3.3-1.5c1.2,0,1.9,0.5,2.3,1.6c0.1,0.3,0.5,0.4,0.7,0.1
		c1.2-1.2,2.3-1.7,3.5-1.7c1.8,0,2.7,1.2,2.7,3.8v12.1c0,0.2-0.2,0.4-0.4,0.4h-2.1c-0.2,0-0.4-0.2-0.4-0.4v-11.3
		c0-1.4-0.3-1.9-1.1-1.9c-0.8,0-1.6,0.5-2.4,1.5c-0.1,0.1-0.1,0.2-0.1,0.3v11.4c0,0.2-0.2,0.4-0.4,0.4h-2.1c-0.2,0-0.4-0.2-0.4-0.4
		v-11.3c0-1.4-0.3-1.9-1.1-1.9c-0.8,0-1.6,0.5-2.4,1.5c-0.1,0.1-0.1,0.2-0.1,0.3v11.4c0,0.2-0.2,0.4-0.4,0.4h-2.1
		c-0.2,0-0.4-0.2-0.4-0.4v-15.2c0-0.2,0.2-0.4,0.4-0.4H47c0.2,0,0.4,0.2,0.4,0.4V152.2L47.4,152.2z"/>
	<path class="st4" d="M70.6,155.8c-0.2,0.1-0.5,0-0.6-0.2c-0.6-1.4-1.3-1.9-2.3-1.9c-0.9,0-1.6,0.6-1.6,1.4c0,0.9,0.5,1.3,2.7,2.6
		c1.8,1,2.6,1.5,3.3,2.2c0.7,0.7,1.1,1.8,1.1,3c0,2.8-2,4.8-5,4.8c-2.6,0-4.3-1.3-5.4-4.1c-0.1-0.2,0-0.5,0.3-0.6l2-0.7
		c0.2-0.1,0.5,0,0.6,0.3c0.6,1.7,1.4,2.3,2.5,2.3c1,0,1.7-0.7,1.7-1.6c0-0.9-0.5-1.5-2.3-2.4c-2.2-1.2-2.8-1.7-3.5-2.4
		c-0.7-0.8-1.2-1.9-1.2-3c0-2.6,2-4.5,4.7-4.5c2.4,0,4,1.1,5.1,3.5c0.1,0.2,0,0.5-0.2,0.6L70.6,155.8L70.6,155.8z"/>
	<path class="st4" d="M78.2,151.7v0.2c0,0.4,0.4,0.6,0.7,0.3c1-0.8,1.9-1.2,2.8-1.2c1.2,0,2.1,0.6,2.6,1.7c0.5,1.1,0.6,2.2,0.6,4.7
		v3.9c0,2.5-0.2,3.6-0.6,4.7c-0.5,1.1-1.4,1.7-2.6,1.7c-0.9,0-1.8-0.4-2.8-1.2c-0.3-0.2-0.7,0-0.7,0.3v5.7c0,0.2-0.2,0.4-0.4,0.4
		h-2.1c-0.2,0-0.4-0.2-0.4-0.4v-20.7c0-0.2,0.2-0.4,0.4-0.4h2.1C78,151.2,78.2,151.4,78.2,151.7 M78.2,163.8c0,0.1,0.1,0.3,0.2,0.4
		c0.7,0.5,1.3,0.7,1.9,0.7c0.6,0,1.2-0.3,1.4-0.8c0.3-0.6,0.3-1,0.3-2.7v-4.2c0-1.7,0-2.1-0.3-2.7c-0.2-0.5-0.8-0.8-1.4-0.8
		c-0.6,0-1.2,0.2-1.9,0.7c-0.1,0.1-0.2,0.2-0.2,0.4V163.8L78.2,163.8z"/>
	<path class="st4" d="M91.1,159.8c-0.2,0-0.4,0.2-0.4,0.4v1c0,2.8,0.5,3.7,2,3.7c0.9,0,1.6-0.5,1.8-1.4c0.1-0.3,0.1-0.5,0.1-1.3
		c0-0.2,0.2-0.4,0.4-0.4h2.1c0.2,0,0.4,0.2,0.4,0.5c0,1.9-0.2,2.6-0.7,3.4c-0.8,1.3-2.3,2-4.3,2c-1.8,0-3.2-0.6-4-1.7
		c-0.7-1-1-2.2-1-4.4v-4.8c0-2.6,0.3-3.6,1.3-4.6c0.9-0.8,2.1-1.3,3.7-1.3c1.7,0,2.9,0.5,3.8,1.5c0.9,1,1.2,2.2,1.2,4.7v2.2
		c0,0.2-0.2,0.4-0.4,0.4H91.1L91.1,159.8z M94.6,156.2c0-1.9-0.6-2.7-2-2.7c-1.4,0-2,0.8-2,2.7v0.9h3.9V156.2L94.6,156.2z"/>
	<path class="st4" d="M107.2,167c0-0.2-0.1-0.4-0.1-0.6c0-0.4-0.5-0.5-0.7-0.3c-1.1,1-1.9,1.4-2.9,1.4c-2,0-3.3-1.6-3.3-4.3
		c0-2.1,0.8-3.3,2.8-4.5c0.7-0.4,1.5-0.8,3.8-1.8c0.2-0.1,0.3-0.2,0.3-0.4v-0.5c0-1.7-0.5-2.3-1.6-2.3c-1,0-1.6,0.6-1.7,1.9
		c0,0.2-0.2,0.4-0.4,0.4H101c-0.3,0-0.5-0.2-0.4-0.5c0.4-2.9,2.3-4.5,5.3-4.5c1.5,0,2.6,0.4,3.3,1.2c0.7,0.8,0.9,1.6,0.9,3.6v7.2
		c0,2.1,0,2.9,0.2,3.8c0.1,0.3-0.2,0.5-0.4,0.5h-2.2C107.4,167.3,107.3,167.2,107.2,167 M107,159.8c0-0.3-0.4-0.6-0.7-0.4
		c-2.2,1.3-3,2.3-3,3.7c0,1.1,0.6,1.8,1.5,1.8c0.8,0,1.6-0.4,2.1-1.3c0-0.1,0.1-0.2,0.1-0.3V159.8L107,159.8z"/>
	<path class="st4" d="M117,156.2l2.7-4.7c0.1-0.1,0.2-0.2,0.4-0.2h2.4c0.3,0,0.6,0.4,0.4,0.7l-2.7,4.4c-0.1,0.1-0.1,0.2,0,0.4
		l3.3,10.1c0.1,0.3-0.1,0.6-0.4,0.6h-2.4c-0.2,0-0.4-0.1-0.4-0.3l-1.9-6.3c-0.1-0.4-0.6-0.4-0.8-0.1l-1.1,1.8c0,0.1-0.1,0.2-0.1,0.2
		v4.2c0,0.2-0.2,0.4-0.4,0.4h-2.1c-0.2,0-0.4-0.2-0.4-0.4v-20.7c0-0.2,0.2-0.4,0.4-0.4h2.1c0.2,0,0.4,0.2,0.4,0.4v9.8
		C116.2,156.4,116.8,156.6,117,156.2"/>
</g>
<g class="st0">
	<g class="st1">
		<defs>
			<rect id="SVGID_3_" y="-0.3" width="133.3" height="172.8"/>
		</defs>
		<clipPath id="SVGID_4_">
			<use xlink:href="#SVGID_3_"  style="overflow:visible;"/>
		</clipPath>
		<path class="st5" d="M0,68.6c0.1-2.1-0.2-4.5,0.2-6.9c0.7-4.1,2.8-7,6.5-8.9c0.9-0.5,1.5-0.9,1.7-2c1.6-8.7,5.1-16.7,10.3-23.9
			c0.6-0.8,1.1-1.4,0.3-2.5c-1-1.4-0.3-2.6,0.7-3.8C27,12.5,35.8,6.4,46.2,3.2c25-7.7,47-2.4,65.8,15.8c1.7,1.7,4,3.4,1.8,6.3
			c-0.4,0.5,0.3,0.9,0.6,1.3c5.4,7.3,8.9,15.5,10.5,24.4c0.2,1,0.8,1.3,1.5,1.7c4.5,2.3,6.7,6.1,6.8,11c0,4.5,0.5,9-0.3,13.4
			c-1.1,6.4-7.6,10.9-13.9,9.6c-1.9-0.4-2.4-1.9-2.4-3.7c0-7.4,0.2-14.7,0-22.1c-0.5-19.8-9.4-34.6-26.7-44.1C61,1,24,18.6,17.6,51
			c-1.1,5.6-0.9,11.3-0.9,17c0.1,5.3,0,10.6-0.1,15.8c0,1.9-1.1,2.9-3.1,3C5.4,87.2,0,82.1,0,74C0,72.3,0,70.6,0,68.6"/>
	</g>
	<path class="st4" d="M81.6,96c3.4,0.4,6.7,1,10.1,1.2c4.6,0.3,8-1.2,10.6-3.9c3.2-3.4,4.7-7.5,4.4-12c-0.3-4.5-4.2-7.2-9.6-6.3
		c-4.8,0.8-9,2.7-13.3,4.4c-3.8,1.5-7.4,3.3-10.2,5.9c-3.9,3.6-1.7,8.5,4.6,10C79.3,95.6,80.5,95.8,81.6,96"/>
	<path class="st4" d="M62.9,86.5L62.9,86.5C62.9,86.5,62.9,86.5,62.9,86.5c-0.4-1.1-1-2.1-1.7-3c-2.5-3.9-5.9-7.3-9.4-10.3
		c-1.8-1.6-3.8-3-5.8-4.4c-4.5-3.1-8-4.9-8-4.9l0,0c-5.3-2.7-10.2-0.1-11.5,6c-1.4,6.8-0.3,13.4,3.4,19.3c2.6,4.1,6.5,6,11.2,6.5
		c2.9,0.3,5.9,0.4,8.9,0.6c2.4,0.1,4.8,0.2,7.1-0.6c3.1-1,5.5-2.9,6-6.2C63.4,88.5,63.2,87.5,62.9,86.5"/>
	<path class="st4" d="M120,102.3c-0.1-2.7-1.2-7-3-8.4c-0.8-0.6-1.9-0.3-2.2,0.7c-0.4,1.2-1,2.9-1.9,4.9h0c-2.1,4.9-5.1,9-8.7,12.3
		l0,0c-4.7,4.3-10.2,7.4-15.6,9.6c0,0,0,0,0,0c-1.3,0.5-2.7,1-4,1.5c0,0,0,0,0,0c-0.9,0.3-1.7,0.6-2.6,0.8c0,0,0,0,0,0
		c-0.4,0.1-0.8,0.2-1.2,0.3c0,0,0,0-0.1,0c-0.8,0.2-1.6,0.4-2.4,0.6c0,0-0.1,0-0.1,0c-0.4,0.1-0.7,0.2-1.1,0.2c0,0-0.1,0-0.1,0
		c-0.7,0.2-1.5,0.3-2.2,0.5c0,0-0.1,0-0.1,0c-0.3,0.1-0.6,0.1-0.9,0.2c0,0-0.1,0-0.1,0c-0.7,0.1-1.3,0.2-1.9,0.3c-0.1,0-0.1,0-0.2,0
		c-0.3,0-0.5,0.1-0.8,0.1c0,0-0.1,0-0.1,0c-0.3,0-0.6,0.1-0.8,0.1c0,0,0,0,0,0c-0.3,0-0.5,0.1-0.7,0.1c0,0-0.1,0-0.1,0
		c-0.2,0-0.4,0.1-0.7,0.1c0,0,0,0,0,0l0,0c-1.7,0.2-2.8,0.3-3,0.3c0,0,0,0,0,0l0,0c-22.7,2.4,5.8,7.4,27.2,3.6l0,0c0,0,0.1,0,0.1,0
		c0.5-0.1,1-0.2,1.5-0.3c0.4-0.1,0.9-0.2,1.3-0.3c0.3-0.1,0.7-0.2,1-0.2c0.2-0.1,0.4-0.1,0.6-0.1c2.9-0.7,5.5-1.6,7.7-2.8
		c13.3-6.4,14.5-17.1,14.5-17.1C119.9,107.3,120.1,104.9,120,102.3"/>
	<path class="st4" d="M16.4,153.6h-1.9c-0.2,0-0.4,0.2-0.4,0.4v8.1c0,1.6,0.6,2.3,1.9,2.3c0.2,0,0.4,0,0.6-0.1
		c0.3-0.1,0.5,0.2,0.5,0.4v1.8c0,0.2-0.2,0.4-0.4,0.4c-0.6,0.1-1.1,0.2-1.7,0.2c-1.5,0-2.6-0.4-3.2-1.2c-0.6-0.7-0.7-1.5-0.7-3.5
		v-8.5c0-0.2-0.2-0.4-0.4-0.4H9.2c-0.2,0-0.4-0.2-0.4-0.4v-1.8c0-0.2,0.2-0.4,0.4-0.4h1.4c0.2,0,0.4-0.2,0.4-0.4V147
		c0-0.2,0.2-0.4,0.4-0.4h2.1c0.2,0,0.4,0.2,0.4,0.4v3.5c0,0.2,0.2,0.4,0.4,0.4h1.9c0.2,0,0.4,0.2,0.4,0.4v1.8
		C16.8,153.4,16.6,153.6,16.4,153.6"/>
	<path class="st4" d="M22.4,159.5c-0.2,0-0.4,0.2-0.4,0.4v1c0,2.8,0.5,3.7,2,3.7c0.9,0,1.6-0.5,1.8-1.4c0.1-0.3,0.1-0.5,0.1-1.3
		c0-0.2,0.2-0.4,0.4-0.4h2.1c0.2,0,0.4,0.2,0.4,0.5c0,1.9-0.2,2.6-0.7,3.4c-0.8,1.3-2.3,2-4.3,2c-1.8,0-3.2-0.6-4-1.7
		c-0.7-1-1-2.2-1-4.4v-4.8c0-2.6,0.3-3.6,1.3-4.6c0.9-0.8,2.1-1.3,3.7-1.3c1.7,0,2.9,0.5,3.8,1.5c0.9,1,1.2,2.2,1.2,4.7v2.2
		c0,0.2-0.2,0.4-0.4,0.4H22.4L22.4,159.5z M25.9,156c0-1.9-0.6-2.7-2-2.7c-1.4,0-2,0.8-2,2.7v0.9h3.9V156L25.9,156z"/>
	<path class="st4" d="M38.5,166.7c0-0.2-0.1-0.4-0.1-0.6c0-0.4-0.5-0.5-0.7-0.3c-1.1,1-1.9,1.4-2.9,1.4c-2,0-3.3-1.6-3.3-4.3
		c0-2.1,0.8-3.3,2.8-4.5c0.7-0.4,1.5-0.8,3.8-1.8c0.2-0.1,0.3-0.2,0.3-0.4v-0.5c0-1.7-0.5-2.3-1.6-2.3c-1,0-1.6,0.6-1.7,1.9
		c0,0.2-0.2,0.4-0.4,0.4h-2.3c-0.3,0-0.5-0.2-0.4-0.5c0.4-2.9,2.3-4.5,5.3-4.5c1.5,0,2.6,0.4,3.3,1.2c0.7,0.8,0.9,1.6,0.9,3.6v7.2
		c0,2.1,0,2.9,0.2,3.8c0.1,0.3-0.2,0.5-0.4,0.5h-2.2C38.7,167,38.5,166.9,38.5,166.7 M38.3,159.5c0-0.3-0.4-0.6-0.7-0.4
		c-2.2,1.3-3,2.3-3,3.7c0,1.1,0.6,1.8,1.5,1.8c0.8,0,1.6-0.4,2.1-1.3c0-0.1,0.1-0.2,0.1-0.3V159.5L38.3,159.5z"/>
	<path class="st4" d="M47.4,151.9c0,0.4,0.5,0.6,0.7,0.3c1.1-1,2.1-1.5,3.3-1.5c1.2,0,1.9,0.5,2.3,1.6c0.1,0.3,0.5,0.4,0.7,0.1
		c1.2-1.2,2.3-1.7,3.5-1.7c1.8,0,2.7,1.2,2.7,3.8v12.1c0,0.2-0.2,0.4-0.4,0.4h-2.1c-0.2,0-0.4-0.2-0.4-0.4v-11.3
		c0-1.4-0.3-1.9-1.1-1.9c-0.8,0-1.6,0.5-2.4,1.5c-0.1,0.1-0.1,0.2-0.1,0.3v11.4c0,0.2-0.2,0.4-0.4,0.4h-2.1c-0.2,0-0.4-0.2-0.4-0.4
		v-11.3c0-1.4-0.3-1.9-1.1-1.9c-0.8,0-1.6,0.5-2.4,1.5c-0.1,0.1-0.1,0.2-0.1,0.3v11.4c0,0.2-0.2,0.4-0.4,0.4h-2.1
		c-0.2,0-0.4-0.2-0.4-0.4v-15.2c0-0.2,0.2-0.4,0.4-0.4H47c0.2,0,0.4,0.2,0.4,0.4V151.9L47.4,151.9z"/>
	<path class="st4" d="M70.6,155.5c-0.2,0.1-0.5,0-0.6-0.2c-0.6-1.4-1.3-1.9-2.3-1.9c-0.9,0-1.6,0.6-1.6,1.4c0,0.9,0.5,1.3,2.7,2.6
		c1.8,1,2.6,1.5,3.3,2.2c0.7,0.7,1.1,1.8,1.1,3c0,2.8-2,4.8-5,4.8c-2.6,0-4.3-1.3-5.4-4.1c-0.1-0.2,0-0.5,0.3-0.6l2-0.7
		c0.2-0.1,0.5,0,0.6,0.3c0.6,1.7,1.4,2.3,2.5,2.3c1,0,1.7-0.7,1.7-1.6c0-0.9-0.5-1.5-2.3-2.4c-2.2-1.2-2.8-1.7-3.5-2.4
		c-0.7-0.8-1.2-1.9-1.2-3c0-2.6,2-4.5,4.7-4.5c2.4,0,4,1.1,5.1,3.5c0.1,0.2,0,0.5-0.2,0.6L70.6,155.5L70.6,155.5z"/>
	<path class="st4" d="M78.2,151.4v0.2c0,0.4,0.4,0.6,0.7,0.3c1-0.8,1.9-1.2,2.8-1.2c1.2,0,2.1,0.6,2.6,1.7c0.5,1.1,0.6,2.2,0.6,4.7
		v3.9c0,2.5-0.2,3.6-0.6,4.7c-0.5,1.1-1.4,1.7-2.6,1.7c-0.9,0-1.8-0.4-2.8-1.2c-0.3-0.2-0.7,0-0.7,0.3v5.7c0,0.2-0.2,0.4-0.4,0.4
		h-2.1c-0.2,0-0.4-0.2-0.4-0.4v-20.7c0-0.2,0.2-0.4,0.4-0.4h2.1C78,150.9,78.2,151.1,78.2,151.4 M78.2,163.6c0,0.1,0.1,0.3,0.2,0.4
		c0.7,0.5,1.3,0.7,1.9,0.7c0.6,0,1.2-0.3,1.4-0.8c0.3-0.6,0.3-1,0.3-2.7v-4.2c0-1.7,0-2.1-0.3-2.7c-0.2-0.5-0.8-0.8-1.4-0.8
		c-0.6,0-1.2,0.2-1.9,0.7c-0.1,0.1-0.2,0.2-0.2,0.4V163.6L78.2,163.6z"/>
	<path class="st4" d="M91.1,159.5c-0.2,0-0.4,0.2-0.4,0.4v1c0,2.8,0.5,3.7,2,3.7c0.9,0,1.6-0.5,1.8-1.4c0.1-0.3,0.1-0.5,0.1-1.3
		c0-0.2,0.2-0.4,0.4-0.4h2.1c0.2,0,0.4,0.2,0.4,0.5c0,1.9-0.2,2.6-0.7,3.4c-0.8,1.3-2.3,2-4.3,2c-1.8,0-3.2-0.6-4-1.7
		c-0.7-1-1-2.2-1-4.4v-4.8c0-2.6,0.3-3.6,1.3-4.6c0.9-0.8,2.1-1.3,3.7-1.3c1.7,0,2.9,0.5,3.8,1.5c0.9,1,1.2,2.2,1.2,4.7v2.2
		c0,0.2-0.2,0.4-0.4,0.4H91.1L91.1,159.5z M94.6,156c0-1.9-0.6-2.7-2-2.7c-1.4,0-2,0.8-2,2.7v0.9h3.9V156L94.6,156z"/>
	<path class="st4" d="M107.2,166.7c0-0.2-0.1-0.4-0.1-0.6c0-0.4-0.5-0.5-0.7-0.3c-1.1,1-1.9,1.4-2.9,1.4c-2,0-3.3-1.6-3.3-4.3
		c0-2.1,0.8-3.3,2.8-4.5c0.7-0.4,1.5-0.8,3.8-1.8c0.2-0.1,0.3-0.2,0.3-0.4v-0.5c0-1.7-0.5-2.3-1.6-2.3c-1,0-1.6,0.6-1.7,1.9
		c0,0.2-0.2,0.4-0.4,0.4H101c-0.3,0-0.5-0.2-0.4-0.5c0.4-2.9,2.3-4.5,5.3-4.5c1.5,0,2.6,0.4,3.3,1.2c0.7,0.8,0.9,1.6,0.9,3.6v7.2
		c0,2.1,0,2.9,0.2,3.8c0.1,0.3-0.2,0.5-0.4,0.5h-2.2C107.4,167,107.3,166.9,107.2,166.7 M107,159.5c0-0.3-0.4-0.6-0.7-0.4
		c-2.2,1.3-3,2.3-3,3.7c0,1.1,0.6,1.8,1.5,1.8c0.8,0,1.6-0.4,2.1-1.3c0-0.1,0.1-0.2,0.1-0.3V159.5L107,159.5z"/>
	<path class="st4" d="M117,155.9l2.7-4.7c0.1-0.1,0.2-0.2,0.4-0.2h2.4c0.3,0,0.6,0.4,0.4,0.7l-2.7,4.4c-0.1,0.1-0.1,0.2,0,0.4
		l3.3,10.1c0.1,0.3-0.1,0.6-0.4,0.6h-2.4c-0.2,0-0.4-0.1-0.4-0.3l-1.9-6.3c-0.1-0.4-0.6-0.4-0.8-0.1l-1.1,1.8c0,0.1-0.1,0.2-0.1,0.2
		v4.2c0,0.2-0.2,0.4-0.4,0.4h-2.1c-0.2,0-0.4-0.2-0.4-0.4v-20.7c0-0.2,0.2-0.4,0.4-0.4h2.1c0.2,0,0.4,0.2,0.4,0.4v9.8
		C116.2,156.1,116.8,156.3,117,155.9"/>
</g>
<g class="st0">
	<g class="st1">
		<defs>
			<rect id="SVGID_5_" x="0" y="0" width="133.3" height="172.8"/>
		</defs>
		<clipPath id="SVGID_6_">
			<use xlink:href="#SVGID_5_"  style="overflow:visible;"/>
		</clipPath>
		<path class="st6" d="M0,68.9c0.1-2.1-0.2-4.5,0.2-6.9c0.7-4.1,2.8-7,6.5-8.9c0.9-0.5,1.5-0.9,1.7-2c1.6-8.7,5.1-16.7,10.3-23.9
			c0.6-0.8,1.1-1.4,0.3-2.5c-1-1.4-0.3-2.6,0.7-3.8C27,12.7,35.8,6.7,46.2,3.4c25-7.7,47-2.4,65.8,15.8c1.7,1.7,4,3.4,1.8,6.3
			c-0.4,0.5,0.3,0.9,0.6,1.3c5.4,7.3,8.9,15.5,10.5,24.4c0.2,1,0.8,1.3,1.5,1.7c4.5,2.3,6.7,6.1,6.8,11c0,4.5,0.5,9-0.3,13.4
			c-1.1,6.4-7.6,10.9-13.9,9.6c-1.9-0.4-2.4-1.9-2.4-3.7c0-7.4,0.2-14.7,0-22.1c-0.5-19.8-9.4-34.6-26.7-44.1
			C61,1.3,24,18.9,17.6,51.3c-1.1,5.6-0.9,11.3-0.9,17c0.1,5.3,0,10.6-0.1,15.8c0,1.9-1.1,2.9-3.1,3C5.4,87.5,0,82.3,0,74.3
			C0,72.6,0,70.9,0,68.9"/>
	</g>
	<path class="st3" d="M81.6,96.2c3.4,0.4,6.7,1,10.1,1.2c4.6,0.3,8-1.2,10.6-3.9c3.2-3.4,4.7-7.5,4.4-12c-0.3-4.5-4.2-7.2-9.6-6.3
		c-4.8,0.8-9,2.7-13.3,4.4c-3.8,1.5-7.4,3.3-10.2,5.9c-3.9,3.6-1.7,8.5,4.6,10C79.3,95.9,80.5,96,81.6,96.2"/>
	<path class="st3" d="M62.9,86.8L62.9,86.8C62.9,86.8,62.9,86.8,62.9,86.8c-0.4-1.1-1-2.1-1.7-3c-2.5-3.9-5.9-7.3-9.4-10.3
		c-1.8-1.6-3.8-3-5.8-4.4c-4.5-3.1-8-4.9-8-4.9l0,0c-5.3-2.7-10.2-0.1-11.5,6c-1.4,6.8-0.3,13.4,3.4,19.3c2.6,4.1,6.5,6,11.2,6.5
		c2.9,0.3,5.9,0.4,8.9,0.6c2.4,0.1,4.8,0.2,7.1-0.6c3.1-1,5.5-2.9,6-6.2C63.4,88.8,63.2,87.8,62.9,86.8"/>
	<path class="st3" d="M120,102.5c-0.1-2.7-1.2-7-3-8.4c-0.8-0.6-1.9-0.3-2.2,0.7c-0.4,1.2-1,2.9-1.9,4.9h0c-2.1,4.9-5.1,9-8.7,12.3
		l0,0c-4.7,4.3-10.2,7.4-15.6,9.6c0,0,0,0,0,0c-1.3,0.5-2.7,1-4,1.5c0,0,0,0,0,0c-0.9,0.3-1.7,0.6-2.6,0.8c0,0,0,0,0,0
		c-0.4,0.1-0.8,0.2-1.2,0.3c0,0,0,0-0.1,0c-0.8,0.2-1.6,0.4-2.4,0.6c0,0-0.1,0-0.1,0c-0.4,0.1-0.7,0.2-1.1,0.2c0,0-0.1,0-0.1,0
		c-0.7,0.2-1.5,0.3-2.2,0.5c0,0-0.1,0-0.1,0c-0.3,0.1-0.6,0.1-0.9,0.2c0,0-0.1,0-0.1,0c-0.7,0.1-1.3,0.2-1.9,0.3c-0.1,0-0.1,0-0.2,0
		c-0.3,0-0.5,0.1-0.8,0.1c0,0-0.1,0-0.1,0c-0.3,0-0.6,0.1-0.8,0.1c0,0,0,0,0,0c-0.3,0-0.5,0.1-0.7,0.1c0,0-0.1,0-0.1,0
		c-0.2,0-0.4,0.1-0.7,0.1c0,0,0,0,0,0l0,0c-1.7,0.2-2.8,0.3-3,0.3c0,0,0,0,0,0l0,0c-22.7,2.4,5.8,7.4,27.2,3.6l0,0c0,0,0.1,0,0.1,0
		c0.5-0.1,1-0.2,1.5-0.3c0.4-0.1,0.9-0.2,1.3-0.3c0.3-0.1,0.7-0.2,1-0.2c0.2-0.1,0.4-0.1,0.6-0.1c2.9-0.7,5.5-1.6,7.7-2.8
		c13.3-6.4,14.5-17.1,14.5-17.1C119.9,107.5,120.1,105.2,120,102.5"/>
	<path class="st7" d="M16.4,153.9h-1.9c-0.2,0-0.4,0.2-0.4,0.4v8.1c0,1.6,0.6,2.3,1.9,2.3c0.2,0,0.4,0,0.6-0.1
		c0.3-0.1,0.5,0.2,0.5,0.4v1.8c0,0.2-0.2,0.4-0.4,0.4c-0.6,0.1-1.1,0.2-1.7,0.2c-1.5,0-2.6-0.4-3.2-1.2c-0.6-0.7-0.7-1.5-0.7-3.5
		v-8.5c0-0.2-0.2-0.4-0.4-0.4H9.2c-0.2,0-0.4-0.2-0.4-0.4v-1.8c0-0.2,0.2-0.4,0.4-0.4h1.4c0.2,0,0.4-0.2,0.4-0.4v-3.5
		c0-0.2,0.2-0.4,0.4-0.4h2.1c0.2,0,0.4,0.2,0.4,0.4v3.5c0,0.2,0.2,0.4,0.4,0.4h1.9c0.2,0,0.4,0.2,0.4,0.4v1.8
		C16.8,153.7,16.6,153.9,16.4,153.9"/>
	<path class="st7" d="M22.4,159.8c-0.2,0-0.4,0.2-0.4,0.4v1c0,2.8,0.5,3.7,2,3.7c0.9,0,1.6-0.5,1.8-1.4c0.1-0.3,0.1-0.5,0.1-1.3
		c0-0.2,0.2-0.4,0.4-0.4h2.1c0.2,0,0.4,0.2,0.4,0.5c0,1.9-0.2,2.6-0.7,3.4c-0.8,1.3-2.3,2-4.3,2c-1.8,0-3.2-0.6-4-1.7
		c-0.7-1-1-2.2-1-4.4v-4.8c0-2.6,0.3-3.6,1.3-4.6c0.9-0.8,2.1-1.3,3.7-1.3c1.7,0,2.9,0.5,3.8,1.5c0.9,1,1.2,2.2,1.2,4.7v2.2
		c0,0.2-0.2,0.4-0.4,0.4H22.4L22.4,159.8z M25.9,156.2c0-1.9-0.6-2.7-2-2.7c-1.4,0-2,0.8-2,2.7v0.9h3.9V156.2L25.9,156.2z"/>
	<path class="st7" d="M38.5,167c0-0.2-0.1-0.4-0.1-0.6c0-0.4-0.5-0.5-0.7-0.3c-1.1,1-1.9,1.4-2.9,1.4c-2,0-3.3-1.6-3.3-4.3
		c0-2.1,0.8-3.3,2.8-4.5c0.7-0.4,1.5-0.8,3.8-1.8c0.2-0.1,0.3-0.2,0.3-0.4v-0.5c0-1.7-0.5-2.3-1.6-2.3c-1,0-1.6,0.6-1.7,1.9
		c0,0.2-0.2,0.4-0.4,0.4h-2.3c-0.3,0-0.5-0.2-0.4-0.5c0.4-2.9,2.3-4.5,5.3-4.5c1.5,0,2.6,0.4,3.3,1.2c0.7,0.8,0.9,1.6,0.9,3.6v7.2
		c0,2.1,0,2.9,0.2,3.8c0.1,0.3-0.2,0.5-0.4,0.5h-2.2C38.7,167.3,38.5,167.2,38.5,167 M38.3,159.8c0-0.3-0.4-0.6-0.7-0.4
		c-2.2,1.3-3,2.3-3,3.7c0,1.1,0.6,1.8,1.5,1.8c0.8,0,1.6-0.4,2.1-1.3c0-0.1,0.1-0.2,0.1-0.3V159.8L38.3,159.8z"/>
	<path class="st7" d="M47.4,152.2c0,0.4,0.5,0.6,0.7,0.3c1.1-1,2.1-1.5,3.3-1.5c1.2,0,1.9,0.5,2.3,1.6c0.1,0.3,0.5,0.4,0.7,0.1
		c1.2-1.2,2.3-1.7,3.5-1.7c1.8,0,2.7,1.2,2.7,3.8v12.1c0,0.2-0.2,0.4-0.4,0.4h-2.1c-0.2,0-0.4-0.2-0.4-0.4v-11.3
		c0-1.4-0.3-1.9-1.1-1.9c-0.8,0-1.6,0.5-2.4,1.5c-0.1,0.1-0.1,0.2-0.1,0.3v11.4c0,0.2-0.2,0.4-0.4,0.4h-2.1c-0.2,0-0.4-0.2-0.4-0.4
		v-11.3c0-1.4-0.3-1.9-1.1-1.9c-0.8,0-1.6,0.5-2.4,1.5c-0.1,0.1-0.1,0.2-0.1,0.3v11.4c0,0.2-0.2,0.4-0.4,0.4h-2.1
		c-0.2,0-0.4-0.2-0.4-0.4v-15.2c0-0.2,0.2-0.4,0.4-0.4H47c0.2,0,0.4,0.2,0.4,0.4V152.2L47.4,152.2z"/>
	<path class="st7" d="M70.6,155.8c-0.2,0.1-0.5,0-0.6-0.2c-0.6-1.4-1.3-1.9-2.3-1.9c-0.9,0-1.6,0.6-1.6,1.4c0,0.9,0.5,1.3,2.7,2.6
		c1.8,1,2.6,1.5,3.3,2.2c0.7,0.7,1.1,1.8,1.1,3c0,2.8-2,4.8-5,4.8c-2.6,0-4.3-1.3-5.4-4.1c-0.1-0.2,0-0.5,0.3-0.6l2-0.7
		c0.2-0.1,0.5,0,0.6,0.3c0.6,1.7,1.4,2.3,2.5,2.3c1,0,1.7-0.7,1.7-1.6c0-0.9-0.5-1.5-2.3-2.4c-2.2-1.2-2.8-1.7-3.5-2.4
		c-0.7-0.8-1.2-1.9-1.2-3c0-2.6,2-4.5,4.7-4.5c2.4,0,4,1.1,5.1,3.5c0.1,0.2,0,0.5-0.2,0.6L70.6,155.8L70.6,155.8z"/>
	<path class="st7" d="M78.2,151.7v0.2c0,0.4,0.4,0.6,0.7,0.3c1-0.8,1.9-1.2,2.8-1.2c1.2,0,2.1,0.6,2.6,1.7c0.5,1.1,0.6,2.2,0.6,4.7
		v3.9c0,2.5-0.2,3.6-0.6,4.7c-0.5,1.1-1.4,1.7-2.6,1.7c-0.9,0-1.8-0.4-2.8-1.2c-0.3-0.2-0.7,0-0.7,0.3v5.7c0,0.2-0.2,0.4-0.4,0.4
		h-2.1c-0.2,0-0.4-0.2-0.4-0.4v-20.7c0-0.2,0.2-0.4,0.4-0.4h2.1C78,151.2,78.2,151.4,78.2,151.7 M78.2,163.8c0,0.1,0.1,0.3,0.2,0.4
		c0.7,0.5,1.3,0.7,1.9,0.7c0.6,0,1.2-0.3,1.4-0.8c0.3-0.6,0.3-1,0.3-2.7v-4.2c0-1.7,0-2.1-0.3-2.7c-0.2-0.5-0.8-0.8-1.4-0.8
		c-0.6,0-1.2,0.2-1.9,0.7c-0.1,0.1-0.2,0.2-0.2,0.4V163.8L78.2,163.8z"/>
	<path class="st7" d="M91.1,159.8c-0.2,0-0.4,0.2-0.4,0.4v1c0,2.8,0.5,3.7,2,3.7c0.9,0,1.6-0.5,1.8-1.4c0.1-0.3,0.1-0.5,0.1-1.3
		c0-0.2,0.2-0.4,0.4-0.4h2.1c0.2,0,0.4,0.2,0.4,0.5c0,1.9-0.2,2.6-0.7,3.4c-0.8,1.3-2.3,2-4.3,2c-1.8,0-3.2-0.6-4-1.7
		c-0.7-1-1-2.2-1-4.4v-4.8c0-2.6,0.3-3.6,1.3-4.6c0.9-0.8,2.1-1.3,3.7-1.3c1.7,0,2.9,0.5,3.8,1.5c0.9,1,1.2,2.2,1.2,4.7v2.2
		c0,0.2-0.2,0.4-0.4,0.4H91.1L91.1,159.8z M94.6,156.2c0-1.9-0.6-2.7-2-2.7c-1.4,0-2,0.8-2,2.7v0.9h3.9V156.2L94.6,156.2z"/>
	<path class="st7" d="M107.2,167c0-0.2-0.1-0.4-0.1-0.6c0-0.4-0.5-0.5-0.7-0.3c-1.1,1-1.9,1.4-2.9,1.4c-2,0-3.3-1.6-3.3-4.3
		c0-2.1,0.8-3.3,2.8-4.5c0.7-0.4,1.5-0.8,3.8-1.8c0.2-0.1,0.3-0.2,0.3-0.4v-0.5c0-1.7-0.5-2.3-1.6-2.3c-1,0-1.6,0.6-1.7,1.9
		c0,0.2-0.2,0.4-0.4,0.4H101c-0.3,0-0.5-0.2-0.4-0.5c0.4-2.9,2.3-4.5,5.3-4.5c1.5,0,2.6,0.4,3.3,1.2c0.7,0.8,0.9,1.6,0.9,3.6v7.2
		c0,2.1,0,2.9,0.2,3.8c0.1,0.3-0.2,0.5-0.4,0.5h-2.2C107.4,167.3,107.3,167.2,107.2,167 M107,159.8c0-0.3-0.4-0.6-0.7-0.4
		c-2.2,1.3-3,2.3-3,3.7c0,1.1,0.6,1.8,1.5,1.8c0.8,0,1.6-0.4,2.1-1.3c0-0.1,0.1-0.2,0.1-0.3V159.8L107,159.8z"/>
	<path class="st7" d="M117,156.2l2.7-4.7c0.1-0.1,0.2-0.2,0.4-0.2h2.4c0.3,0,0.6,0.4,0.4,0.7l-2.7,4.4c-0.1,0.1-0.1,0.2,0,0.4
		l3.3,10.1c0.1,0.3-0.1,0.6-0.4,0.6h-2.4c-0.2,0-0.4-0.1-0.4-0.3l-1.9-6.3c-0.1-0.4-0.6-0.4-0.8-0.1l-1.1,1.8c0,0.1-0.1,0.2-0.1,0.2
		v4.2c0,0.2-0.2,0.4-0.4,0.4h-2.1c-0.2,0-0.4-0.2-0.4-0.4v-20.7c0-0.2,0.2-0.4,0.4-0.4h2.1c0.2,0,0.4,0.2,0.4,0.4v9.8
		C116.2,156.4,116.8,156.6,117,156.2"/>
</g>
<g>
	<g>
		<defs>
			<rect id="SVGID_7_" y="0" width="133.3" height="172.8"/>
		</defs>
		<clipPath id="SVGID_8_">
			<use xlink:href="#SVGID_7_"  style="overflow:visible;"/>
		</clipPath>
		<path class="st8" d="M0,68.9c0.1-2.1-0.2-4.5,0.2-6.9c0.7-4.1,2.8-7,6.5-8.9c0.9-0.5,1.5-0.9,1.7-2c1.6-8.7,5.1-16.7,10.3-23.9
			c0.6-0.8,1.1-1.4,0.3-2.5c-1-1.4-0.3-2.6,0.7-3.8C27,12.7,35.8,6.7,46.2,3.4c25-7.7,47-2.4,65.8,15.8c1.7,1.7,4,3.4,1.8,6.3
			c-0.4,0.5,0.3,0.9,0.6,1.3c5.4,7.3,8.9,15.5,10.5,24.4c0.2,1,0.8,1.3,1.5,1.7c4.5,2.3,6.7,6.1,6.8,11c0,4.5,0.5,9-0.3,13.4
			c-1.1,6.4-7.6,10.9-13.9,9.6c-1.9-0.4-2.4-1.9-2.4-3.7c0-7.4,0.2-14.7,0-22.1c-0.5-19.8-9.4-34.6-26.7-44.1
			C61,1.3,24,18.9,17.6,51.3c-1.1,5.6-0.9,11.3-0.9,17c0.1,5.3,0,10.6-0.1,15.8c0,1.9-1.1,2.9-3.1,3C5.4,87.5,0,82.3,0,74.3
			C0,72.6,0,70.9,0,68.9"/>
	</g>
	<path class="st9" d="M81.6,96.2c3.4,0.4,6.7,1,10.1,1.2c4.6,0.3,8-1.2,10.6-3.9c3.2-3.4,4.7-7.5,4.4-12c-0.3-4.5-4.2-7.2-9.6-6.3
		c-4.8,0.8-9,2.7-13.3,4.4c-3.8,1.5-7.4,3.3-10.2,5.9c-3.9,3.6-1.7,8.5,4.6,10C79.3,95.9,80.5,96,81.6,96.2"/>
	<path class="st9" d="M62.9,86.8L62.9,86.8C62.9,86.8,62.9,86.8,62.9,86.8c-0.4-1.1-1-2.1-1.7-3c-2.5-3.9-5.9-7.3-9.4-10.3
		c-1.8-1.6-3.8-3-5.8-4.4c-4.5-3.1-8-4.9-8-4.9l0,0c-5.3-2.7-10.2-0.1-11.5,6c-1.4,6.8-0.3,13.4,3.4,19.3c2.6,4.1,6.5,6,11.2,6.5
		c2.9,0.3,5.9,0.4,8.9,0.6c2.4,0.1,4.8,0.2,7.1-0.6c3.1-1,5.5-2.9,6-6.2C63.4,88.8,63.2,87.8,62.9,86.8"/>
	<path class="st9" d="M120,102.5c-0.1-2.7-1.2-7-3-8.4c-0.8-0.6-1.9-0.3-2.2,0.7c-0.4,1.2-1,2.9-1.9,4.9h0c-2.1,4.9-5.1,9-8.7,12.3
		l0,0c-4.7,4.3-10.2,7.4-15.6,9.6c0,0,0,0,0,0c-1.3,0.5-2.7,1-4,1.5c0,0,0,0,0,0c-0.9,0.3-1.7,0.6-2.6,0.8c0,0,0,0,0,0
		c-0.4,0.1-0.8,0.2-1.2,0.3c0,0,0,0-0.1,0c-0.8,0.2-1.6,0.4-2.4,0.6c0,0-0.1,0-0.1,0c-0.4,0.1-0.7,0.2-1.1,0.2c0,0-0.1,0-0.1,0
		c-0.7,0.2-1.5,0.3-2.2,0.5c0,0-0.1,0-0.1,0c-0.3,0.1-0.6,0.1-0.9,0.2c0,0-0.1,0-0.1,0c-0.7,0.1-1.3,0.2-1.9,0.3c-0.1,0-0.1,0-0.2,0
		c-0.3,0-0.5,0.1-0.8,0.1c0,0-0.1,0-0.1,0c-0.3,0-0.6,0.1-0.8,0.1c0,0,0,0,0,0c-0.3,0-0.5,0.1-0.7,0.1c0,0-0.1,0-0.1,0
		c-0.2,0-0.4,0.1-0.7,0.1c0,0,0,0,0,0l0,0c-1.7,0.2-2.8,0.3-3,0.3c0,0,0,0,0,0l0,0c-22.7,2.4,5.8,7.4,27.2,3.6l0,0c0,0,0.1,0,0.1,0
		c0.5-0.1,1-0.2,1.5-0.3c0.4-0.1,0.9-0.2,1.3-0.3c0.3-0.1,0.7-0.2,1-0.2c0.2-0.1,0.4-0.1,0.6-0.1c2.9-0.7,5.5-1.6,7.7-2.8
		c13.3-6.4,14.5-17.1,14.5-17.1C119.9,107.5,120.1,105.2,120,102.5"/>
	<path class="st9" d="M16.4,153.9h-1.9c-0.2,0-0.4,0.2-0.4,0.4v8.1c0,1.6,0.6,2.3,1.9,2.3c0.2,0,0.4,0,0.6-0.1
		c0.3-0.1,0.5,0.2,0.5,0.4v1.8c0,0.2-0.2,0.4-0.4,0.4c-0.6,0.1-1.1,0.2-1.7,0.2c-1.5,0-2.6-0.4-3.2-1.2c-0.6-0.7-0.7-1.5-0.7-3.5
		v-8.5c0-0.2-0.2-0.4-0.4-0.4H9.2c-0.2,0-0.4-0.2-0.4-0.4v-1.8c0-0.2,0.2-0.4,0.4-0.4h1.4c0.2,0,0.4-0.2,0.4-0.4v-3.5
		c0-0.2,0.2-0.4,0.4-0.4h2.1c0.2,0,0.4,0.2,0.4,0.4v3.5c0,0.2,0.2,0.4,0.4,0.4h1.9c0.2,0,0.4,0.2,0.4,0.4v1.8
		C16.8,153.7,16.6,153.9,16.4,153.9"/>
	<path class="st9" d="M22.4,159.8c-0.2,0-0.4,0.2-0.4,0.4v1c0,2.8,0.5,3.7,2,3.7c0.9,0,1.6-0.5,1.8-1.4c0.1-0.3,0.1-0.5,0.1-1.3
		c0-0.2,0.2-0.4,0.4-0.4h2.1c0.2,0,0.4,0.2,0.4,0.5c0,1.9-0.2,2.6-0.7,3.4c-0.8,1.3-2.3,2-4.3,2c-1.8,0-3.2-0.6-4-1.7
		c-0.7-1-1-2.2-1-4.4v-4.8c0-2.6,0.3-3.6,1.3-4.6c0.9-0.8,2.1-1.3,3.7-1.3c1.7,0,2.9,0.5,3.8,1.5c0.9,1,1.2,2.2,1.2,4.7v2.2
		c0,0.2-0.2,0.4-0.4,0.4H22.4L22.4,159.8z M25.9,156.2c0-1.9-0.6-2.7-2-2.7c-1.4,0-2,0.8-2,2.7v0.9h3.9V156.2L25.9,156.2z"/>
	<path class="st9" d="M38.5,167c0-0.2-0.1-0.4-0.1-0.6c0-0.4-0.5-0.5-0.7-0.3c-1.1,1-1.9,1.4-2.9,1.4c-2,0-3.3-1.6-3.3-4.3
		c0-2.1,0.8-3.3,2.8-4.5c0.7-0.4,1.5-0.8,3.8-1.8c0.2-0.1,0.3-0.2,0.3-0.4v-0.5c0-1.7-0.5-2.3-1.6-2.3c-1,0-1.6,0.6-1.7,1.9
		c0,0.2-0.2,0.4-0.4,0.4h-2.3c-0.3,0-0.5-0.2-0.4-0.5c0.4-2.9,2.3-4.5,5.3-4.5c1.5,0,2.6,0.4,3.3,1.2c0.7,0.8,0.9,1.6,0.9,3.6v7.2
		c0,2.1,0,2.9,0.2,3.8c0.1,0.3-0.2,0.5-0.4,0.5h-2.2C38.7,167.3,38.5,167.2,38.5,167 M38.3,159.8c0-0.3-0.4-0.6-0.7-0.4
		c-2.2,1.3-3,2.3-3,3.7c0,1.1,0.6,1.8,1.5,1.8c0.8,0,1.6-0.4,2.1-1.3c0-0.1,0.1-0.2,0.1-0.3V159.8L38.3,159.8z"/>
	<path class="st9" d="M47.4,152.2c0,0.4,0.5,0.6,0.7,0.3c1.1-1,2.1-1.5,3.3-1.5c1.2,0,1.9,0.5,2.3,1.6c0.1,0.3,0.5,0.4,0.7,0.1
		c1.2-1.2,2.3-1.7,3.5-1.7c1.8,0,2.7,1.2,2.7,3.8v12.1c0,0.2-0.2,0.4-0.4,0.4h-2.1c-0.2,0-0.4-0.2-0.4-0.4v-11.3
		c0-1.4-0.3-1.9-1.1-1.9c-0.8,0-1.6,0.5-2.4,1.5c-0.1,0.1-0.1,0.2-0.1,0.3v11.4c0,0.2-0.2,0.4-0.4,0.4h-2.1c-0.2,0-0.4-0.2-0.4-0.4
		v-11.3c0-1.4-0.3-1.9-1.1-1.9c-0.8,0-1.6,0.5-2.4,1.5c-0.1,0.1-0.1,0.2-0.1,0.3v11.4c0,0.2-0.2,0.4-0.4,0.4h-2.1
		c-0.2,0-0.4-0.2-0.4-0.4v-15.2c0-0.2,0.2-0.4,0.4-0.4H47c0.2,0,0.4,0.2,0.4,0.4V152.2L47.4,152.2z"/>
	<path class="st9" d="M70.6,155.8c-0.2,0.1-0.5,0-0.6-0.2c-0.6-1.4-1.3-1.9-2.3-1.9c-0.9,0-1.6,0.6-1.6,1.4c0,0.9,0.5,1.3,2.7,2.6
		c1.8,1,2.6,1.5,3.3,2.2c0.7,0.7,1.1,1.8,1.1,3c0,2.8-2,4.8-5,4.8c-2.6,0-4.3-1.3-5.4-4.1c-0.1-0.2,0-0.5,0.3-0.6l2-0.7
		c0.2-0.1,0.5,0,0.6,0.3c0.6,1.7,1.4,2.3,2.5,2.3c1,0,1.7-0.7,1.7-1.6c0-0.9-0.5-1.5-2.3-2.4c-2.2-1.2-2.8-1.7-3.5-2.4
		c-0.7-0.8-1.2-1.9-1.2-3c0-2.6,2-4.5,4.7-4.5c2.4,0,4,1.1,5.1,3.5c0.1,0.2,0,0.5-0.2,0.6L70.6,155.8L70.6,155.8z"/>
	<path class="st9" d="M78.2,151.7v0.2c0,0.4,0.4,0.6,0.7,0.3c1-0.8,1.9-1.2,2.8-1.2c1.2,0,2.1,0.6,2.6,1.7c0.5,1.1,0.6,2.2,0.6,4.7
		v3.9c0,2.5-0.2,3.6-0.6,4.7c-0.5,1.1-1.4,1.7-2.6,1.7c-0.9,0-1.8-0.4-2.8-1.2c-0.3-0.2-0.7,0-0.7,0.3v5.7c0,0.2-0.2,0.4-0.4,0.4
		h-2.1c-0.2,0-0.4-0.2-0.4-0.4v-20.7c0-0.2,0.2-0.4,0.4-0.4h2.1C78,151.2,78.2,151.4,78.2,151.7 M78.2,163.8c0,0.1,0.1,0.3,0.2,0.4
		c0.7,0.5,1.3,0.7,1.9,0.7c0.6,0,1.2-0.3,1.4-0.8c0.3-0.6,0.3-1,0.3-2.7v-4.2c0-1.7,0-2.1-0.3-2.7c-0.2-0.5-0.8-0.8-1.4-0.8
		c-0.6,0-1.2,0.2-1.9,0.7c-0.1,0.1-0.2,0.2-0.2,0.4V163.8L78.2,163.8z"/>
	<path class="st9" d="M91.1,159.8c-0.2,0-0.4,0.2-0.4,0.4v1c0,2.8,0.5,3.7,2,3.7c0.9,0,1.6-0.5,1.8-1.4c0.1-0.3,0.1-0.5,0.1-1.3
		c0-0.2,0.2-0.4,0.4-0.4h2.1c0.2,0,0.4,0.2,0.4,0.5c0,1.9-0.2,2.6-0.7,3.4c-0.8,1.3-2.3,2-4.3,2c-1.8,0-3.2-0.6-4-1.7
		c-0.7-1-1-2.2-1-4.4v-4.8c0-2.6,0.3-3.6,1.3-4.6c0.9-0.8,2.1-1.3,3.7-1.3c1.7,0,2.9,0.5,3.8,1.5c0.9,1,1.2,2.2,1.2,4.7v2.2
		c0,0.2-0.2,0.4-0.4,0.4H91.1L91.1,159.8z M94.6,156.2c0-1.9-0.6-2.7-2-2.7c-1.4,0-2,0.8-2,2.7v0.9h3.9V156.2L94.6,156.2z"/>
	<path class="st9" d="M107.2,167c0-0.2-0.1-0.4-0.1-0.6c0-0.4-0.5-0.5-0.7-0.3c-1.1,1-1.9,1.4-2.9,1.4c-2,0-3.3-1.6-3.3-4.3
		c0-2.1,0.8-3.3,2.8-4.5c0.7-0.4,1.5-0.8,3.8-1.8c0.2-0.1,0.3-0.2,0.3-0.4v-0.5c0-1.7-0.5-2.3-1.6-2.3c-1,0-1.6,0.6-1.7,1.9
		c0,0.2-0.2,0.4-0.4,0.4H101c-0.3,0-0.5-0.2-0.4-0.5c0.4-2.9,2.3-4.5,5.3-4.5c1.5,0,2.6,0.4,3.3,1.2c0.7,0.8,0.9,1.6,0.9,3.6v7.2
		c0,2.1,0,2.9,0.2,3.8c0.1,0.3-0.2,0.5-0.4,0.5h-2.2C107.4,167.3,107.3,167.2,107.2,167 M107,159.8c0-0.3-0.4-0.6-0.7-0.4
		c-2.2,1.3-3,2.3-3,3.7c0,1.1,0.6,1.8,1.5,1.8c0.8,0,1.6-0.4,2.1-1.3c0-0.1,0.1-0.2,0.1-0.3V159.8L107,159.8z"/>
	<path class="st9" d="M117,156.2l2.7-4.7c0.1-0.1,0.2-0.2,0.4-0.2h2.4c0.3,0,0.6,0.4,0.4,0.7l-2.7,4.4c-0.1,0.1-0.1,0.2,0,0.4
		l3.3,10.1c0.1,0.3-0.1,0.6-0.4,0.6h-2.4c-0.2,0-0.4-0.1-0.4-0.3l-1.9-6.3c-0.1-0.4-0.6-0.4-0.8-0.1l-1.1,1.8c0,0.1-0.1,0.2-0.1,0.2
		v4.2c0,0.2-0.2,0.4-0.4,0.4h-2.1c-0.2,0-0.4-0.2-0.4-0.4v-20.7c0-0.2,0.2-0.4,0.4-0.4h2.1c0.2,0,0.4,0.2,0.4,0.4v9.8
		C116.2,156.4,116.8,156.6,117,156.2"/>
</g>
</svg>
